<?xml version="1.0" encoding="UTF-8" standalone="no"?>
<!-- Created with Inkscape (http://www.inkscape.org/) -->

<svg
   xmlns:dc="http://purl.org/dc/elements/1.1/"
   xmlns:cc="http://creativecommons.org/ns#"
   xmlns:rdf="http://www.w3.org/1999/02/22-rdf-syntax-ns#"
   xmlns:svg="http://www.w3.org/2000/svg"
   xmlns="http://www.w3.org/2000/svg"
   xmlns:sodipodi="http://sodipodi.sourceforge.net/DTD/sodipodi-0.dtd"
   xmlns:inkscape="http://www.inkscape.org/namespaces/inkscape"
   width="469"
   height="469"
   viewBox="0 0 469 469.00001"
   id="svg5681"
   version="1.1"
   inkscape:version="0.91 r13725"
   sodipodi:docname="placeholder1.svg">
  <defs
     id="defs5683">
    <inkscape:path-effect
       effect="spiro"
       id="path-effect4291"
       is_visible="true" />
    <inkscape:path-effect
       effect="spiro"
       id="path-effect4295"
       is_visible="true" />
    <inkscape:path-effect
       effect="spiro"
       id="path-effect4299"
       is_visible="true" />
    <inkscape:path-effect
       effect="spiro"
       id="path-effect4303"
       is_visible="true" />
    <inkscape:path-effect
       effect="spiro"
       id="path-effect4307"
       is_visible="true" />
    <inkscape:path-effect
       effect="spiro"
       id="path-effect4311"
       is_visible="true" />
    <inkscape:path-effect
       effect="spiro"
       id="path-effect4315"
       is_visible="true" />
    <inkscape:path-effect
       effect="spiro"
       id="path-effect4319"
       is_visible="true" />
    <inkscape:path-effect
       effect="spiro"
       id="path-effect4323"
       is_visible="true" />
    <inkscape:path-effect
       effect="spiro"
       id="path-effect4327"
       is_visible="true" />
    <inkscape:path-effect
       effect="spiro"
       id="path-effect4331"
       is_visible="true" />
    <inkscape:path-effect
       effect="spiro"
       id="path-effect4335"
       is_visible="true" />
    <inkscape:path-effect
       effect="spiro"
       id="path-effect4339"
       is_visible="true" />
    <inkscape:path-effect
       effect="spiro"
       id="path-effect4343"
       is_visible="true" />
    <inkscape:path-effect
       effect="spiro"
       id="path-effect4347"
       is_visible="true" />
    <inkscape:path-effect
       effect="spiro"
       id="path-effect4351"
       is_visible="true" />
    <inkscape:path-effect
       effect="spiro"
       id="path-effect4355"
       is_visible="true" />
    <inkscape:path-effect
       effect="spiro"
       id="path-effect4359"
       is_visible="true" />
    <inkscape:path-effect
       effect="spiro"
       id="path-effect4363"
       is_visible="true" />
    <inkscape:path-effect
       effect="spiro"
       id="path-effect4367"
       is_visible="true" />
    <inkscape:path-effect
       effect="spiro"
       id="path-effect4371"
       is_visible="true" />
    <inkscape:path-effect
       effect="spiro"
       id="path-effect4375"
       is_visible="true" />
    <inkscape:path-effect
       effect="spiro"
       id="path-effect4379"
       is_visible="true" />
    <inkscape:path-effect
       effect="spiro"
       id="path-effect4383"
       is_visible="true" />
    <inkscape:path-effect
       effect="spiro"
       id="path-effect4387"
       is_visible="true" />
    <inkscape:path-effect
       effect="spiro"
       id="path-effect4391"
       is_visible="true" />
    <inkscape:path-effect
       effect="spiro"
       id="path-effect4395"
       is_visible="true" />
    <inkscape:path-effect
       effect="spiro"
       id="path-effect4399"
       is_visible="true" />
    <inkscape:path-effect
       effect="spiro"
       id="path-effect4403"
       is_visible="true" />
    <inkscape:path-effect
       effect="spiro"
       id="path-effect4407"
       is_visible="true" />
    <inkscape:path-effect
       effect="spiro"
       id="path-effect4411"
       is_visible="true" />
    <inkscape:path-effect
       effect="spiro"
       id="path-effect4481"
       is_visible="true" />
    <inkscape:path-effect
       effect="spiro"
       id="path-effect4489"
       is_visible="true" />
    <inkscape:path-effect
       effect="spiro"
       id="path-effect4493"
       is_visible="true" />
    <inkscape:path-effect
       effect="spiro"
       id="path-effect4477"
       is_visible="true" />
    <inkscape:path-effect
       effect="spiro"
       id="path-effect4469"
       is_visible="true" />
    <inkscape:path-effect
       effect="spiro"
       id="path-effect4473"
       is_visible="true" />
    <inkscape:path-effect
       effect="spiro"
       id="path-effect4461"
       is_visible="true" />
    <inkscape:path-effect
       effect="spiro"
       id="path-effect4465"
       is_visible="true" />
    <inkscape:path-effect
       effect="spiro"
       id="path-effect4453"
       is_visible="true" />
    <inkscape:path-effect
       effect="spiro"
       id="path-effect4457"
       is_visible="true" />
    <inkscape:path-effect
       effect="spiro"
       id="path-effect4431"
       is_visible="true" />
    <inkscape:path-effect
       is_visible="true"
       id="path-effect4437"
       effect="spiro" />
    <inkscape:path-effect
       effect="spiro"
       id="path-effect4441"
       is_visible="true" />
    <inkscape:path-effect
       is_visible="true"
       id="path-effect4449"
       effect="spiro" />
    <inkscape:path-effect
       effect="spiro"
       id="path-effect4238"
       is_visible="true" />
  </defs>
  <sodipodi:namedview
     id="base"
     pagecolor="#ffffff"
     bordercolor="#666666"
     borderopacity="1.0"
     inkscape:pageopacity="0.0"
     inkscape:pageshadow="2"
     inkscape:zoom="1.0606035"
     inkscape:cx="271.20037"
     inkscape:cy="203.88472"
     inkscape:document-units="px"
     inkscape:current-layer="layer1"
     showgrid="false"
     units="px"
     inkscape:snap-global="false"
     inkscape:snap-bbox="true"
     inkscape:snap-bbox-midpoints="true"
     inkscape:window-width="1366"
     inkscape:window-height="746"
     inkscape:window-x="-8"
     inkscape:window-y="-8"
     inkscape:window-maximized="1"
     inkscape:object-nodes="true"
     inkscape:object-paths="true"
     showguides="false"
     inkscape:guide-bbox="true">
    <sodipodi:guide
       position="242.86353,94.309982"
       orientation="1,0"
       id="guide4261" />
    <sodipodi:guide
       position="242.86353,0"
       orientation="0,1"
       id="guide4263" />
    <sodipodi:guide
       position="242.86353,94.309982"
       orientation="0,1"
       id="guide4354" />
  </sodipodi:namedview>
  <metadata
     id="metadata5686">
    <rdf:RDF>
      <cc:Work
         rdf:about="">
        <dc:format>image/svg+xml</dc:format>
        <dc:type
           rdf:resource="http://purl.org/dc/dcmitype/StillImage" />
        <dc:title />
      </cc:Work>
    </rdf:RDF>
  </metadata>
  <g
     inkscape:label="Livello 1"
     inkscape:groupmode="layer"
     id="layer1"
     transform="translate(0,-583.36216)">
    <path
       id="circle4392"
       style="fill:#ffb482;fill-opacity:1;stroke:none"
       d="M 219.05526,878.87774 A 3.255579,3.2615245 0 0 0 222.31084,882.13926 3.255579,3.2615245 0 0 0 225.56642,878.87774 3.255579,3.2615245 0 0 0 222.31084,875.61621 3.255579,3.2615245 0 0 0 219.05526,878.87774 Z M 181.18971,769.11292 C 178.01995,769.13535 174.8945,769.31259 172.39015,769.61806 166.63808,770.31967 152.97317,773.55358 147.95973,774.05231 144.58334,774.38822 139.00636,774.56375 130.80482,773.65284 128.65799,773.4143 129.46135,782.00936 130.24067,782.5891 136.84064,787.49972 138.44617,789.17521 138.51711,793.38551 138.76065,807.84359 139.11992,819.01181 142.62395,827.49528 146.87055,837.77662 156.04476,850.07746 175.17607,851.83433 180.16734,852.29271 185.18734,852.29271 190.15019,851.83433 209.28049,850.06753 219.50441,837.24447 224.82907,816.99022 226.5056,810.61287 226.18357,800.99911 226.55728,798.64446 226.9319,796.284 231.98833,795.0123 234.35432,795.0123 236.72031,795.0123 241.78665,796.14598 241.92414,798.64446 242.05386,801.0017 242.20366,810.61287 243.88019,816.99022 249.20486,837.24447 259.42878,850.06753 278.55906,851.83433 283.52192,852.29271 288.5413,852.29271 293.53257,851.83433 312.66386,850.07746 321.83809,837.77662 326.0847,827.49528 329.58869,819.01181 329.94863,807.84359 330.19215,793.38551 330.26306,789.17521 331.86861,787.49972 338.46859,782.5891 339.24791,782.00936 340.05125,773.4143 337.90443,773.65284 329.70292,774.56375 324.12591,774.38822 320.74952,774.05231 315.73605,773.55358 302.07118,770.31967 296.31913,769.61806 291.31038,769.00708 283.81733,768.90945 278.45407,769.53791 272.36366,770.2515 264.17411,772.63854 257.86148,774.95632 253.30899,776.62784 249.31227,777.62089 244.44239,778.48366 237.11596,779.7816 230.50578,779.61342 223.81243,778.42687 218.20421,777.43264 215.40028,776.62784 210.8478,774.95632 204.53515,772.63854 196.3456,770.2515 190.2552,769.53791 187.57356,769.22371 184.35946,769.09071 181.18971,769.11292 Z M 182.64915,784.43993 C 187.46429,784.45116 192.28438,784.74363 197.38656,785.31101 209.00391,786.60288 219.37279,796.35448 218.55448,808.11982 218.22681,812.83091 217.80469,815.9277 216.94778,819.34994 213.7488,832.12575 206.00312,841.2299 193.28967,844.41779 187.62612,845.83794 178.14829,845.83794 172.03848,844.41779 159.27176,841.45038 151.33704,831.02013 149.02279,823.68852 147.48669,818.82216 146.38122,811.95168 146.1306,806.19128 145.56593,793.21362 154.8342,786.69274 167.94157,785.25572 173.02424,784.69849 177.83403,784.42871 182.64915,784.43993 Z M 286.06008,784.43993 C 290.87522,784.42871 295.68502,784.69849 300.76765,785.25572 313.87506,786.69274 323.1427,793.21362 322.57803,806.19128 322.32742,811.95168 321.22256,818.82216 319.68647,823.68852 317.37224,831.02013 309.43752,841.45038 296.67078,844.41779 290.56097,845.83794 281.08312,845.83794 275.4196,844.41779 262.70614,841.2299 254.96047,832.12575 251.76147,819.34994 250.90458,815.9277 250.48245,812.83091 250.15477,808.11982 249.33648,796.35448 259.70536,786.60288 271.3227,785.31101 276.42487,784.74363 281.24497,784.4512 286.06008,784.43993 Z"
       inkscape:connector-curvature="0" />
  </g>
</svg>
