<?xml version="1.0" encoding="UTF-8" standalone="no"?>
<!-- Created with Inkscape (http://www.inkscape.org/) -->

<svg
   xmlns:dc="http://purl.org/dc/elements/1.1/"
   xmlns:cc="http://creativecommons.org/ns#"
   xmlns:rdf="http://www.w3.org/1999/02/22-rdf-syntax-ns#"
   xmlns:svg="http://www.w3.org/2000/svg"
   xmlns="http://www.w3.org/2000/svg"
   xmlns:sodipodi="http://sodipodi.sourceforge.net/DTD/sodipodi-0.dtd"
   xmlns:inkscape="http://www.inkscape.org/namespaces/inkscape"
   width="469"
   height="469"
   viewBox="0 0 469 469.00001"
   id="svg5681"
   version="1.1"
   inkscape:version="0.91 r13725"
   sodipodi:docname="placeholder2.svg">
  <defs
     id="defs5683">
    <inkscape:path-effect
       effect="spiro"
       id="path-effect4291"
       is_visible="true" />
    <inkscape:path-effect
       effect="spiro"
       id="path-effect4295"
       is_visible="true" />
    <inkscape:path-effect
       effect="spiro"
       id="path-effect4299"
       is_visible="true" />
    <inkscape:path-effect
       effect="spiro"
       id="path-effect4303"
       is_visible="true" />
    <inkscape:path-effect
       effect="spiro"
       id="path-effect4307"
       is_visible="true" />
    <inkscape:path-effect
       effect="spiro"
       id="path-effect4311"
       is_visible="true" />
    <inkscape:path-effect
       effect="spiro"
       id="path-effect4315"
       is_visible="true" />
    <inkscape:path-effect
       effect="spiro"
       id="path-effect4319"
       is_visible="true" />
    <inkscape:path-effect
       effect="spiro"
       id="path-effect4323"
       is_visible="true" />
    <inkscape:path-effect
       effect="spiro"
       id="path-effect4327"
       is_visible="true" />
    <inkscape:path-effect
       effect="spiro"
       id="path-effect4331"
       is_visible="true" />
    <inkscape:path-effect
       effect="spiro"
       id="path-effect4335"
       is_visible="true" />
    <inkscape:path-effect
       effect="spiro"
       id="path-effect4339"
       is_visible="true" />
    <inkscape:path-effect
       effect="spiro"
       id="path-effect4343"
       is_visible="true" />
    <inkscape:path-effect
       effect="spiro"
       id="path-effect4347"
       is_visible="true" />
    <inkscape:path-effect
       effect="spiro"
       id="path-effect4351"
       is_visible="true" />
    <inkscape:path-effect
       effect="spiro"
       id="path-effect4355"
       is_visible="true" />
    <inkscape:path-effect
       effect="spiro"
       id="path-effect4359"
       is_visible="true" />
    <inkscape:path-effect
       effect="spiro"
       id="path-effect4363"
       is_visible="true" />
    <inkscape:path-effect
       effect="spiro"
       id="path-effect4367"
       is_visible="true" />
    <inkscape:path-effect
       effect="spiro"
       id="path-effect4371"
       is_visible="true" />
    <inkscape:path-effect
       effect="spiro"
       id="path-effect4375"
       is_visible="true" />
    <inkscape:path-effect
       effect="spiro"
       id="path-effect4379"
       is_visible="true" />
    <inkscape:path-effect
       effect="spiro"
       id="path-effect4383"
       is_visible="true" />
    <inkscape:path-effect
       effect="spiro"
       id="path-effect4387"
       is_visible="true" />
    <inkscape:path-effect
       effect="spiro"
       id="path-effect4391"
       is_visible="true" />
    <inkscape:path-effect
       effect="spiro"
       id="path-effect4395"
       is_visible="true" />
    <inkscape:path-effect
       effect="spiro"
       id="path-effect4399"
       is_visible="true" />
    <inkscape:path-effect
       effect="spiro"
       id="path-effect4403"
       is_visible="true" />
    <inkscape:path-effect
       effect="spiro"
       id="path-effect4407"
       is_visible="true" />
    <inkscape:path-effect
       effect="spiro"
       id="path-effect4411"
       is_visible="true" />
    <inkscape:path-effect
       effect="spiro"
       id="path-effect4481"
       is_visible="true" />
    <inkscape:path-effect
       effect="spiro"
       id="path-effect4489"
       is_visible="true" />
    <inkscape:path-effect
       effect="spiro"
       id="path-effect4493"
       is_visible="true" />
    <inkscape:path-effect
       effect="spiro"
       id="path-effect4477"
       is_visible="true" />
    <inkscape:path-effect
       effect="spiro"
       id="path-effect4469"
       is_visible="true" />
    <inkscape:path-effect
       effect="spiro"
       id="path-effect4473"
       is_visible="true" />
    <inkscape:path-effect
       effect="spiro"
       id="path-effect4461"
       is_visible="true" />
    <inkscape:path-effect
       effect="spiro"
       id="path-effect4465"
       is_visible="true" />
    <inkscape:path-effect
       effect="spiro"
       id="path-effect4453"
       is_visible="true" />
    <inkscape:path-effect
       effect="spiro"
       id="path-effect4457"
       is_visible="true" />
    <inkscape:path-effect
       effect="spiro"
       id="path-effect4431"
       is_visible="true" />
    <inkscape:path-effect
       is_visible="true"
       id="path-effect4437"
       effect="spiro" />
    <inkscape:path-effect
       effect="spiro"
       id="path-effect4441"
       is_visible="true" />
    <inkscape:path-effect
       is_visible="true"
       id="path-effect4449"
       effect="spiro" />
    <inkscape:path-effect
       effect="spiro"
       id="path-effect4238"
       is_visible="true" />
  </defs>
  <sodipodi:namedview
     id="base"
     pagecolor="#ffffff"
     bordercolor="#666666"
     borderopacity="1.0"
     inkscape:pageopacity="0.0"
     inkscape:pageshadow="2"
     inkscape:zoom="0.74995993"
     inkscape:cx="269.49174"
     inkscape:cy="205.2114"
     inkscape:document-units="px"
     inkscape:current-layer="layer1"
     showgrid="false"
     units="px"
     inkscape:snap-global="false"
     inkscape:snap-bbox="true"
     inkscape:snap-bbox-midpoints="true"
     inkscape:window-width="1366"
     inkscape:window-height="746"
     inkscape:window-x="-8"
     inkscape:window-y="-8"
     inkscape:window-maximized="1"
     inkscape:object-nodes="true"
     inkscape:object-paths="true"
     showguides="false"
     inkscape:guide-bbox="true">
    <sodipodi:guide
       position="242.86353,94.309982"
       orientation="1,0"
       id="guide4261" />
    <sodipodi:guide
       position="242.86353,0"
       orientation="0,1"
       id="guide4263" />
    <sodipodi:guide
       position="242.86353,94.309982"
       orientation="0,1"
       id="guide4354" />
  </sodipodi:namedview>
  <metadata
     id="metadata5686">
    <rdf:RDF>
      <cc:Work
         rdf:about="">
        <dc:format>image/svg+xml</dc:format>
        <dc:type
           rdf:resource="http://purl.org/dc/dcmitype/StillImage" />
        <dc:title />
      </cc:Work>
    </rdf:RDF>
  </metadata>
  <g
     inkscape:label="Livello 1"
     inkscape:groupmode="layer"
     id="layer1"
     transform="translate(0,-583.36216)">
    <path
       id="circle4148"
       style="opacity:1;fill:#51e6a6;fill-opacity:1;stroke:none"
       d="M 283.00336,751.0248 A 3.1776591,3.1776591 0 0 1 279.82571,754.20225 3.1776591,3.1776591 0 0 1 276.64805,751.0248 3.1776591,3.1776591 0 0 1 279.82571,747.84737 3.1776591,3.1776591 0 0 1 283.00336,751.0248 Z M 296.36231,763.27074 A 3.8456073,3.8456073 0 0 1 292.51671,767.11648 3.8456073,3.8456073 0 0 1 288.6711,763.27074 3.8456073,3.8456073 0 0 1 292.51671,759.425 3.8456073,3.8456073 0 0 1 296.36231,763.27074 Z M 287.45634,776.18497 A 3.8456073,3.8456073 0 0 1 283.61074,780.03071 3.8456073,3.8456073 0 0 1 279.76513,776.18497 3.8456073,3.8456073 0 0 1 283.61074,772.33922 3.8456073,3.8456073 0 0 1 287.45634,776.18497 Z M 266.76087,786.25212 266.76087,790.61606 269.19185,790.61606 269.19185,810.51413 232.94906,862.1718 C 229.30875,867.36041 225.81017,872.90547 231.07859,879.25609 236.34701,881.23627 331.95942,881.67157 336.31036,879.25609 341.90997,873.09528 338.3974,867.12265 334.43991,862.1718 L 298.1954,810.51413 298.1954,790.61606 300.62809,790.61606 300.62809,786.25212 298.1954,786.25212 290.2533,786.25212 290.2533,790.61606 290.2533,807.20531 290.2533,812.0326 306.969,837.44604 C 309.6573,840.80852 310.09995,842.76878 307.55284,844.48639 305.00573,846.20482 263.33802,845.76302 260.79091,844.48639 258.2438,843.20977 261.37647,837.44604 261.37647,837.44604 L 277.13566,812.04194 277.13566,807.20531 277.13566,790.61606 277.13566,786.25212 269.19185,786.25212 Z M 164.12529,771.41463 164.12529,775.78061 166.5544,775.78061 166.5544,795.24542 C 148.75938,801.20219 135.87297,818.00278 135.87297,837.77079 135.87297,862.50061 156.01031,878.01889 180.74009,878.01889 205.46988,878.01889 225.60723,862.50061 225.60723,837.77079 225.60723,818.00278 212.72082,801.2026 194.9258,795.24542 L 194.9258,775.78061 197.35491,775.78061 197.35491,771.41463 194.9258,771.41463 186.97958,771.41463 186.97958,801.04043 C 200.59626,803.41769 217.47844,817.56789 217.47844,831.91684 217.47844,837.90451 201.07675,837.90451 180.74009,837.90451 160.40344,837.90451 144.00176,838.02238 144.00176,831.91684 144.00176,817.40085 160.88394,803.41769 174.50061,801.04043 L 174.50061,771.41463 166.5544,771.41463 Z"
       inkscape:connector-curvature="0" />
  </g>
</svg>
